<svg width="18" height="18" viewBox="0 0 18 18" fill="none" xmlns="http://www.w3.org/2000/svg">
<path fill-rule="evenodd" clip-rule="evenodd" d="M16.875 7.5C16.875 7.29289 16.7071 7.125 16.5 7.125H9.75C9.54289 7.125 9.375 7.29289 9.375 7.5V16.5C9.375 16.7071 9.54289 16.875 9.75 16.875H16.5C16.7071 16.875 16.875 16.7071 16.875 16.5V7.5ZM16.125 7.875V16.125H10.125V7.875H16.125Z" fill="#052A35"/>
<path fill-rule="evenodd" clip-rule="evenodd" d="M10.125 1.5C10.125 1.29289 9.95711 1.125 9.75 1.125H1.5C1.29289 1.125 1.125 1.29289 1.125 1.5V16.5C1.125 16.7071 1.29289 16.875 1.5 16.875H9.75C9.95711 16.875 10.125 16.7071 10.125 16.5V1.5ZM9.375 1.875V16.125H1.875V1.875H9.375Z" fill="#052A35"/>
<path fill-rule="evenodd" clip-rule="evenodd" d="M7.5 5.625V4.5H6.75V5.625H7.5Z" fill="#052A35"/>
<path fill-rule="evenodd" clip-rule="evenodd" d="M7.5 9V7.875H6.75V9H7.5Z" fill="#052A35"/>
<path fill-rule="evenodd" clip-rule="evenodd" d="M7.5 12.375V11.25H6.75V12.375H7.5Z" fill="#052A35"/>
<path fill-rule="evenodd" clip-rule="evenodd" d="M4.5 5.625V4.5H3.75V5.625H4.5Z" fill="#052A35"/>
<path fill-rule="evenodd" clip-rule="evenodd" d="M4.5 9V7.875H3.75V9H4.5Z" fill="#052A35"/>
<path fill-rule="evenodd" clip-rule="evenodd" d="M4.5 12.375V11.25H3.75V12.375H4.5Z" fill="#052A35"/>
<path fill-rule="evenodd" clip-rule="evenodd" d="M14.625 11.25V10.125H13.875V11.25H14.625Z" fill="#052A35"/>
<path fill-rule="evenodd" clip-rule="evenodd" d="M14.625 14.25V13.125H13.875V14.25H14.625Z" fill="#052A35"/>
<path fill-rule="evenodd" clip-rule="evenodd" d="M12.375 11.25V10.125H11.625V11.25H12.375Z" fill="#052A35"/>
<path fill-rule="evenodd" clip-rule="evenodd" d="M12.375 14.25V13.125H11.625V14.25H12.375Z" fill="#052A35"/>
</svg>
