<svg width="575" height="687" viewBox="0 0 575 687" fill="none" xmlns="http://www.w3.org/2000/svg">
  <path
    d="M275.525 599.707C393.733 608.294 554.053 602.477 592.317 436.472C624.936 294.912 508.427 185.286 402.156 188.11C283.279 191.162 194.581 330.427 163.302 459.396C146.799 527.576 149.805 606.01 193.644 663.448C241.824 726.162 309.149 721.99 362.063 682.183C410.359 645.966 444.953 585.882 457.641 516.758C469.754 450.097 464.205 363.907 410.974 320.628C366.896 284.773 309.033 293.948 267.377 322.025C220.548 353.608 190.009 410.866 181.008 476.543C172.373 539.28 189.37 609.639 234.852 649.352C283.814 692.265 351.342 692.982 405.65 680.108C515.834 653.952 627.389 553.104 648.42 410.43C673.806 238.418 502.896 154.404 391.73 169.682C274.031 185.788 172.883 307.612 171.429 458.325C170.772 529.684 199.413 597.078 256.318 624.357C303.702 647.152 358.548 640.474 397.445 605.013C492.74 517.846 453.423 328.907 357.291 252.137C253.745 169.544 115.085 203.272 60.6874 333.057C32.8119 399.75 50.6055 473.551 109.415 508.853C159.109 538.76 216.479 531.696 262.043 502.513C363.545 437.303 408.781 283.128 350.393 147.321C290.15 7.38611 137.167 -57.1393 51.4272 65.8946C-20.5888 170.206 -10.8383 338.21 49.5603 456.914C113.28 582.235 227.192 648.146 341.419 635.115C395.544 629.056 449.091 604.083 489.816 561.896C530.54 519.709 565.916 443.388 534.625 371.987C504.795 303.926 436.929 280.526 380.754 280.282C327.577 280.088 277.11 301.198 234.917 337.331C193.686 372.64 162.122 424.965 147.668 485.197C141.699 510.2 151.025 533.887 170.571 546.172C303.827 630.166 482.144 576.64 553.036 423.129C597.367 327.117 589.621 211.402 513.476 133.786C452.95 72.1091 372.561 59.2741 302.776 83.8424C173.372 129.221 61.8638 331.86 155.089 497.298C206.376 588.38 300.117 586.281 368.932 545.573C429.512 509.686 528.867 415.282 467.761 316.877C414.368 230.697 299.395 251.307 238.12 295.105C167.535 345.585 124.102 435.012 130.045 539.805C131.451 565.039 155.628 582.725 174.009 580.258C195.976 577.243 205.279 553.597 203.897 528.528C197.631 417.168 301.338 326.341 386.966 355.681C413.356 364.716 414.572 379.8 398.9 403.57C382.153 429.202 356.62 448.031 332.478 461.727C289.841 486.053 229.986 495.532 206.45 426.849C167.614 313.167 248.902 200.144 329.781 171.676C373.12 156.406 422.774 162.906 461.925 197.647C515.707 245.423 516.409 319.458 484.251 380.358C425.506 491.465 295.746 523.834 196.035 461.015L218.938 521.989C237.666 443.46 293.406 387.443 359.225 375.187C390.819 369.345 436.747 370.136 462.766 400.774C490.917 433.802 452.058 478.418 432.287 496.707C377.25 547.527 296.635 558.14 228.87 528.277C158.011 496.851 102.658 420.981 84.0528 331.186C67.7324 251.9 75.4381 135.014 141.774 99.4349C215.277 60.0472 274.177 170.51 284.938 255.225C296.123 343.609 259.164 421.345 189.353 435.059C171.788 438.419 125.531 435.473 121.752 404.492C119.549 386.505 136.663 361.496 145.561 349.449C158.078 332.607 173.934 319.837 190.954 311.13C254.697 278.153 343.071 316.575 370.373 403.685C393.214 476.715 357.479 565.816 288.101 542.307C207.261 514.95 260.873 372.899 294.551 329.074C348.727 258.365 439.076 241.176 514.793 283.058C553.537 304.458 584.705 342.114 574.305 395.958C565.834 440.177 541.732 480.843 515.428 510.649C462.472 570.652 385.118 607.065 309.82 591.077C232.985 574.815 246.562 464.328 290.366 418.277C308.739 398.844 341.003 381.363 366.76 393.378C400.109 408.815 389.647 478.278 381.389 507.872C369.83 549.678 346.342 586.349 314.717 607.126C282.106 628.563 245.457 621.774 232.213 571.54C219.742 524.581 239.364 472.383 255.654 433.078C272.432 392.512 294.554 354.014 323.185 325.21C372.512 275.263 457.269 257.061 507.15 330.034C560.499 407.907 479.441 485.944 425.324 501.842C379.157 515.509 330.066 511.807 282.221 508.254C234.244 504.722 227.864 596.466 276.107 599.958L275.525 599.707Z"
    fill="url(#paint0_linear_246_868)" />
  <defs>
    <linearGradient id="paint0_linear_246_868" x1="383.235" y1="697.191" x2="274.17" y2="-17.063"
      gradientUnits="userSpaceOnUse">
      <stop stop-color="#F15A24" />
      <stop offset="1" stop-color="#F24C7A" />
    </linearGradient>
  </defs>
</svg>
