<svg width="260" height="678" viewBox="0 0 260 678" fill="none" xmlns="http://www.w3.org/2000/svg">
<path d="M102.422 438.98C151.433 540.273 232.268 669.367 386.949 622.09C518.847 581.766 553.74 433.94 501.006 347.878C442.104 251.557 285.492 244.67 164.584 280.124C100.682 298.894 37.6002 338.572 11.1566 401.875C-17.5673 471.249 17.8016 524.641 75.6408 549.276C128.338 571.817 194.163 571.766 257.032 549.412C317.603 527.752 385.857 482.302 396.201 417.992C404.78 364.732 369.786 321.496 326.934 300.556C278.745 277.023 217.166 279.068 158.881 302.82C103.188 325.479 53.3837 372.834 42.2981 429.079C30.23 489.704 61.6741 545.582 98.0236 584.14C171.803 662.352 307.663 706.261 434.981 655.878C588.493 595.159 576.515 414.741 511.217 330.562C442.138 241.401 293.963 216.002 169.321 286.3C110.321 319.61 68.4792 375.135 73.0373 434.876C76.7677 484.661 108.277 526.6 155.893 541.769C272.788 578.794 409.529 456.832 427.065 341.352C445.874 217.011 352.359 118.971 219.814 135.798C151.74 144.509 99.4834 194.152 98.3469 259.266C97.3232 314.323 130.347 358.156 175.963 381.786C277.744 434.332 426.002 398.401 509.998 285.957C596.509 170.03 577.007 13.6018 435.147 1.4489C315.195 -8.29812 181.646 79.4171 112.671 185.4C39.8274 297.255 39.656 422.207 104.559 509.97C135.217 551.611 181.157 583.804 235.172 597.285C289.187 610.766 368.738 603.657 412.617 544.051C454.442 487.232 441.494 420.316 415.048 373.999C389.982 330.173 348.68 298.68 298.948 281.12C250.35 263.959 192.342 262.82 135.948 279.505C112.553 286.457 97.4964 305.363 96.6649 327.266C90.7964 476.706 219.407 597.97 379.29 583.454C479.283 574.368 570.777 513.106 598.491 413.663C620.505 334.626 592.927 262.422 539.618 216.683C440.911 131.781 221.357 136.198 129.516 291.348C78.936 376.736 125.129 452.836 191.253 490.122C249.505 522.922 374.278 559.853 426.224 462.918C471.774 378.124 400.284 293.342 335.196 263.723C260.196 229.617 166.043 236.317 82.6766 290.915C62.5898 304.042 59.513 332.316 70.2617 346.263C83.162 362.9 107.022 359.333 126.985 346.305C215.6 288.326 339.495 330.534 355.983 414.876C361.071 440.866 349.242 449.021 322.258 447.408C293.234 445.793 265.635 433.726 242.918 420.367C202.687 396.84 166.498 352.109 211.82 300.171C286.895 214.304 418.41 227.544 480.19 280.558C513.308 308.958 531.516 352.879 521.515 401.558C507.734 468.454 447.178 504.152 381.837 506.593C262.591 510.984 174.415 419.619 178.781 307.813L139.497 355.574C212.967 333.725 285.479 352.995 326.781 401.313C346.573 424.526 367.709 462.675 354.854 498.608C341.044 537.427 285.917 526.633 261.496 519.048C193.592 497.89 146.622 436.624 139.037 366.725C131.27 293.54 167.411 212.025 232.436 154.127C289.902 103.094 389.69 53.9844 450.419 91.6646C517.681 133.432 454.772 234.274 390.203 283.311C322.819 334.436 241.353 340.915 196.958 290.005C185.862 277.153 166.343 237.711 190.029 219.907C203.778 209.563 232.464 211.774 246.594 213.378C266.382 215.683 284.407 222.666 299.642 232.534C357.002 269.315 367.323 360.224 308.632 424C259.404 477.429 169.172 490.305 155.595 422.094C139.747 342.631 282.008 319.34 334.027 326.248C417.88 337.263 474.876 403.415 476.348 485.556C477.128 527.572 460.942 571.069 411.725 588.058C371.34 602.066 326.46 601.535 289.469 594.04C215 578.95 148.358 532.604 125.788 463.092C102.714 392.186 200.024 350.94 258.678 365.121C283.375 371.014 313.058 389.256 315.395 416.14C318.518 450.89 256.426 475.236 228.169 482.484C188.303 492.808 147.001 490.886 114.912 474.733C81.8114 458.081 70.0098 424.719 105.042 389.997C137.747 357.464 189.985 348.841 230.038 343.594C271.36 338.149 313.517 338.081 350.788 347.965C415.266 364.84 470.442 425.913 434.088 501.554C395.349 582.37 292.717 552.724 253.97 515.757C220.83 484.27 200.587 442.14 180.813 401.105C160.959 359.971 82.4786 398.244 102.492 439.578L102.422 438.98Z" fill="url(#paint0_linear_250_4449)"/>
<defs>
<linearGradient id="paint0_linear_250_4449" x1="73.3409" y1="573.809" x2="609.037" y2="145.29" gradientUnits="userSpaceOnUse">
<stop stop-color="#F15A24"/>
<stop offset="1" stop-color="#F24C7A"/>
</linearGradient>
</defs>
</svg>
