<svg width="410" height="565" viewBox="0 0 410 565" fill="none" xmlns="http://www.w3.org/2000/svg">
<path d="M-121.053 462.097C-69.4317 568.783 15.7082 704.752 178.626 654.957C317.548 612.486 354.299 456.788 298.757 366.143C236.719 264.692 71.7658 257.439 -55.5806 294.781C-122.885 314.55 -189.327 356.342 -217.179 423.015C-247.432 496.084 -210.18 552.319 -149.26 578.266C-93.7571 602.007 -24.4264 601.954 41.7909 578.409C105.587 555.595 177.476 507.726 188.37 439.991C197.406 383.895 160.549 338.356 115.415 316.3C64.6596 291.514 -0.198537 293.668 -61.5874 318.685C-120.246 342.551 -172.703 392.428 -184.379 451.668C-197.089 515.521 -163.971 574.375 -125.686 614.987C-47.977 697.364 95.1178 743.611 229.215 690.544C390.903 626.592 378.287 436.567 309.511 347.905C236.753 253.996 80.688 227.244 -50.5915 301.286C-112.734 336.369 -156.803 394.851 -152.002 457.774C-148.073 510.21 -114.886 554.383 -64.7342 570.359C58.3853 609.356 202.408 480.899 220.878 359.269C240.689 228.307 142.194 125.046 2.59017 142.769C-69.1089 151.944 -124.148 204.231 -125.345 272.812C-126.423 330.801 -91.641 376.968 -43.5958 401.857C63.6052 457.201 219.759 419.356 308.227 300.924C399.346 178.824 378.805 14.0655 229.39 1.26545C103.05 -9.00062 -37.6101 83.3857 -110.259 195.013C-186.981 312.824 -187.161 444.43 -118.802 536.867C-86.5115 580.725 -38.1249 614.632 18.7664 628.832C75.6576 643.031 159.445 635.543 205.661 572.763C249.714 512.918 236.076 442.438 208.221 393.655C181.82 347.495 138.319 314.325 85.9382 295.83C34.7525 277.755 -26.3444 276.556 -85.7412 294.129C-110.382 301.451 -126.241 321.364 -127.117 344.433C-133.298 501.831 2.16144 629.553 170.559 614.264C275.877 604.694 372.244 540.169 401.433 435.431C424.62 352.185 395.573 276.136 339.425 227.961C235.461 138.538 4.2153 143.19 -92.5156 306.603C-145.79 396.537 -97.1366 476.691 -27.4918 515.962C33.863 550.508 165.28 589.406 219.993 487.309C267.968 397.999 192.671 308.703 124.116 277.507C45.1227 241.584 -54.0437 248.641 -141.85 306.146C-163.006 319.973 -166.247 349.752 -154.926 364.442C-141.339 381.964 -116.208 378.208 -95.1821 364.486C-1.84842 303.419 128.644 347.875 146.011 436.708C151.37 464.082 138.911 472.672 110.49 470.973C79.9198 469.272 50.852 456.562 26.9253 442.492C-15.4484 417.712 -53.565 370.6 -5.82905 315.895C73.2438 225.456 211.762 239.401 276.832 295.238C311.713 325.15 330.891 371.41 320.358 422.682C305.843 493.14 242.062 530.739 173.242 533.31C47.6454 537.935 -45.2259 441.704 -40.628 323.944L-82.0035 374.249C-4.62116 351.236 71.7519 371.532 115.254 422.424C136.1 446.873 158.362 487.053 144.821 524.899C130.277 565.786 72.2131 554.417 46.4925 546.428C-25.0281 524.143 -74.4989 459.614 -82.4885 385.993C-90.669 308.911 -52.6034 223.055 15.8851 162.074C76.4111 108.324 181.513 56.5986 245.476 96.2853C316.319 140.277 250.061 246.489 182.053 298.137C111.081 351.985 25.2767 358.808 -21.4823 305.188C-33.1695 291.651 -53.7283 250.109 -28.7801 231.357C-14.2995 220.462 15.9146 222.791 30.7966 224.48C51.6389 226.908 70.6235 234.262 86.6697 244.656C147.084 283.396 157.955 379.146 96.1379 446.319C44.2884 502.593 -50.7487 516.154 -65.0479 444.311C-81.74 360.616 68.0961 336.085 122.886 343.361C211.204 354.962 271.235 424.637 272.786 511.152C273.607 555.406 256.56 601.219 204.722 619.113C162.185 633.867 114.916 633.308 75.9552 625.414C-2.4801 609.52 -72.6711 560.706 -96.4429 487.492C-120.745 412.81 -18.2531 369.367 43.5238 384.304C69.5367 390.511 100.8 409.724 103.261 438.04C106.551 474.64 41.1524 500.283 11.3904 507.916C-30.5982 518.791 -74.0996 516.766 -107.898 499.753C-142.761 482.214 -155.191 447.075 -118.293 410.505C-83.8472 376.24 -28.8269 367.157 13.3591 361.631C56.8816 355.896 101.283 355.824 140.539 366.235C208.451 384.008 266.565 448.334 228.275 528.003C187.473 613.123 79.3755 581.897 38.565 542.962C3.66025 509.798 -17.6604 465.424 -38.4876 422.204C-59.3987 378.88 -142.058 419.191 -120.979 462.726L-121.053 462.097Z" fill="url(#paint0_linear_250_4224)"/>
<defs>
<linearGradient id="paint0_linear_250_4224" x1="-151.683" y1="604.105" x2="412.54" y2="152.766" gradientUnits="userSpaceOnUse">
<stop stop-color="#F15A24"/>
<stop offset="1" stop-color="#F24C7A"/>
</linearGradient>
</defs>
</svg>
