<svg width="11" height="12" viewBox="0 0 11 12" fill="none" xmlns="http://www.w3.org/2000/svg">
<path d="M1.71734 4.25857C1.31623 6.45571 1.03519 9.48571 3.44699 10.6814C5.50366 11.7007 7.42236 9.82549 7.6242 7.81997C7.85158 5.57685 5.95842 3.51002 4.08826 2.55197C3.09953 2.04611 1.91151 1.8775 0.945775 2.53664C-0.109385 3.2622 -0.201361 4.5396 0.2764 5.64839C0.710727 6.66009 1.53595 7.48274 2.54768 7.91961C3.52364 8.3386 4.83428 8.48167 5.60841 7.60537C6.24968 6.8798 6.24457 5.76591 5.91755 4.90239C5.54964 3.93156 4.75764 3.19322 3.78934 2.83555C2.82105 2.47788 1.76589 2.61073 1.0633 3.35162C0.304503 4.14872 0.138437 5.4159 0.207418 6.47359C0.347936 8.61963 1.61004 11.0058 3.71014 11.8106C6.24201 12.7814 7.90012 9.81017 7.92567 7.6769C7.95377 5.41846 6.35187 3.16767 4.08571 2.70781C3.01266 2.49065 1.93195 2.83555 1.39032 3.82681C0.93811 4.65201 0.912561 5.70204 1.35711 6.53491C2.45059 8.57619 5.38613 8.37947 6.76321 6.79294C8.24503 5.08378 8.05597 2.38079 6.22668 0.98587C5.28649 0.270525 4.13425 0.393156 3.46743 1.39719C2.9028 2.24539 2.87725 3.34395 3.21194 4.28412C3.96052 6.37906 6.17814 7.67179 8.35744 6.96411C10.5367 6.25643 11.9266 3.54323 10.271 1.57858C8.86586 -0.0743737 6.31355 -0.373286 4.38718 0.421258C2.35351 1.25923 1.09907 3.21111 1.03264 5.39546C0.999427 6.43016 1.25236 7.50829 1.79399 8.3948C2.36117 9.3222 3.40356 10.1653 4.55069 9.78206C5.64417 9.41673 6.15259 8.2083 6.28545 7.15317C6.41063 6.15424 6.2088 5.14509 5.7617 4.24836C5.32482 3.37206 4.60945 2.62861 3.73569 2.18407C3.3729 2.00013 2.99478 2.10743 2.76484 2.43955C1.1936 4.70311 1.5896 8.2083 3.73824 9.98134C5.0821 11.0901 6.84241 11.2766 8.18627 10.0682C9.2542 9.10759 9.63232 7.63347 9.42282 6.25132C9.03704 3.68885 6.24201 1.01142 3.53641 2.28882C2.04692 2.99139 1.86297 4.75932 2.31774 6.16957C2.71885 7.4112 3.91197 9.54958 5.53432 8.6835C6.95482 7.92727 6.90883 5.70715 6.3902 4.42975C5.79236 2.95818 4.54558 1.88516 2.9539 1.69611C2.57067 1.65012 2.24876 2.05378 2.24365 2.40634C2.23854 2.82788 2.57322 3.07059 2.9539 3.11658C4.64522 3.31841 5.77447 5.52831 5.13576 7.05353C4.93903 7.52362 4.70909 7.50318 4.38718 7.14039C4.03972 6.75206 3.81489 6.21811 3.66415 5.72503C3.39589 4.85384 3.39078 3.70163 4.47916 3.45637C6.28034 3.05271 7.79537 4.90494 8.03808 6.5068C8.16838 7.36522 7.95633 8.27984 7.34316 8.91598C6.50005 9.78973 5.38358 9.59045 4.54047 8.81124C3.00244 7.38821 2.81338 4.8564 3.98862 3.16256L3.01777 3.41804C4.15724 3.99543 4.8726 5.20385 4.90582 6.47615C4.92115 7.08674 4.80362 7.94771 4.28243 8.34882C3.72036 8.78313 3.13785 7.92472 2.90791 7.50062C2.2692 6.3203 2.29474 4.77465 2.90025 3.58666C3.53641 2.34503 4.80618 1.52238 6.20114 1.43041C7.43258 1.35121 9.175 1.83151 9.55823 3.18045C9.98234 4.67501 8.27824 5.79146 6.97781 5.75058C5.67739 5.7097 4.44083 4.46296 4.39485 3.11147C4.38463 2.77168 4.53536 1.91071 5.01057 1.92859C5.28649 1.93881 5.62374 2.33225 5.78469 2.53408C6.00952 2.81767 6.16537 3.15234 6.25734 3.49724C6.60736 4.78997 5.82557 6.34074 4.45105 6.60389C3.29881 6.8236 2.03926 5.8962 2.55279 4.65968C3.15062 3.21877 5.16641 4.63413 5.74892 5.39291C6.68912 6.6141 6.74021 8.36159 5.93543 9.66454C5.5241 10.3313 4.88538 10.8091 4.09848 10.4591C3.4521 10.1729 2.89514 9.60323 2.5068 9.02329C1.72501 7.85574 1.35455 6.29731 1.76844 4.92793C2.18233 3.55856 3.82255 4.10273 4.41528 5.05823C4.66566 5.45933 4.85472 6.11592 4.61456 6.56556C4.30542 7.14806 3.28348 6.75206 2.85681 6.51191C2.25387 6.17468 1.75567 5.62795 1.51551 4.97392C1.26769 4.29945 1.45419 3.63009 2.24109 3.52535C2.97689 3.42571 3.7178 3.94433 4.27221 4.36332C4.8445 4.79508 5.37336 5.32137 5.74126 5.94219C6.37998 7.01265 6.45918 8.65795 5.24562 9.38607C3.9503 10.1653 2.96156 8.4178 2.8466 7.355C2.74696 6.44804 2.91558 5.53598 3.07909 4.64691C3.2426 3.75528 1.87575 3.37206 1.71223 4.26879L1.71734 4.25857Z" fill="#FF790B"/>
</svg>
