<svg width="18" height="18" viewBox="0 0 18 18" fill="none" xmlns="http://www.w3.org/2000/svg">
  <path fill-rule="evenodd" clip-rule="evenodd"
    d="M4.5 1.875C3.87868 1.875 3.375 2.37868 3.375 3V15C3.375 15.6213 3.87868 16.125 4.5 16.125H13.5C14.1213 16.125 14.625 15.6213 14.625 15V6.6899C14.625 6.36149 14.4815 6.04947 14.2321 5.83574L9.92725 2.14584C9.72336 1.97107 9.46366 1.875 9.19511 1.875H4.5ZM2.625 3C2.625 1.96447 3.46447 1.125 4.5 1.125H9.19511C9.6427 1.125 10.0755 1.28511 10.4153 1.57639L14.7202 5.2663C15.1358 5.62251 15.375 6.14254 15.375 6.6899V15C15.375 16.0355 14.5355 16.875 13.5 16.875H4.5C3.46447 16.875 2.625 16.0355 2.625 15V3Z"
    fill="#FF790B" />
  <path fill-rule="evenodd" clip-rule="evenodd"
    d="M9.375 4.5V1.875H10.125V4.5C10.125 5.12132 10.6287 5.625 11.25 5.625H14.625V6.375H11.25C10.2145 6.375 9.375 5.53553 9.375 4.5Z"
    fill="#FF790B" />
  <path fill-rule="evenodd" clip-rule="evenodd"
    d="M10.2348 7.98484C10.3771 7.84258 10.6063 7.83792 10.7542 7.97428L12.2542 9.3571C12.3286 9.42573 12.3722 9.52156 12.3749 9.62279C12.3776 9.72401 12.3392 9.82203 12.2686 9.89455L8.21011 14.0587C7.8572 14.4208 7.37299 14.625 6.86736 14.625H6C5.79289 14.625 5.625 14.4571 5.625 14.25V13.3713C5.625 12.874 5.82254 12.3971 6.17417 12.0455L10.2348 7.98484ZM10.5106 8.76977L6.7045 12.5758C6.49353 12.7868 6.375 13.073 6.375 13.3713V13.875H6.86736C7.17074 13.875 7.46126 13.7525 7.67301 13.5352L11.4623 9.64719L10.5106 8.76977Z"
    fill="#FF790B" />
</svg>
