<svg width="24" height="24" viewBox="0 0 24 24" fill="none" xmlns="http://www.w3.org/2000/svg">
<path fill-rule="evenodd" clip-rule="evenodd" d="M12 10C10.8954 10 10 10.8954 10 12C10 13.1046 10.8954 14 12 14C13.1046 14 14 13.1046 14 12C14 10.8954 13.1046 10 12 10ZM9 12C9 10.3431 10.3431 9 12 9C13.6569 9 15 10.3431 15 12C15 13.6569 13.6569 15 12 15C10.3431 15 9 13.6569 9 12Z" fill="black"/>
<path fill-rule="evenodd" clip-rule="evenodd" d="M3.69761 12C3.83177 12.1345 4.00345 12.3034 4.20707 12.4972C4.7405 13.0049 5.4903 13.6808 6.3571 14.3554C7.22543 15.0312 8.20135 15.698 9.18724 16.194C10.1789 16.6928 11.1438 17 11.9998 17C12.8557 17 13.8206 16.6928 14.8123 16.194C15.7982 15.698 16.7741 15.0312 17.6424 14.3554C18.5092 13.6808 19.259 13.0049 19.7924 12.4972C19.9961 12.3034 20.1677 12.1345 20.3019 12C20.1677 11.8655 19.9961 11.6966 19.7924 11.5028C19.259 10.9951 18.5092 10.3192 17.6424 9.64458C16.7741 8.96879 15.7982 8.30201 14.8123 7.80604C13.8206 7.30716 12.8557 7 11.9998 7C11.1438 7 10.1789 7.30716 9.18724 7.80604C8.20135 8.30201 7.22543 8.96879 6.3571 9.64458C5.4903 10.3192 4.7405 10.9951 4.20707 11.5028C4.00345 11.6966 3.83177 11.8655 3.69761 12ZM20.9998 12C21.3653 11.6588 21.3652 11.6587 21.3651 11.6586L21.3638 11.6573L21.3605 11.6537L21.3484 11.6408L21.3024 11.5926C21.2624 11.5507 21.2037 11.49 21.1281 11.413C20.9768 11.2592 20.7572 11.0405 20.4819 10.7785C19.9319 10.2549 19.1565 9.55581 18.2566 8.85542C17.3582 8.15621 16.3257 7.44799 15.2617 6.91271C14.2034 6.38034 13.0768 6 11.9998 6C10.9227 6 9.79609 6.38034 8.73784 6.91271C7.67379 7.44799 6.64134 8.15621 5.74292 8.85542C4.84297 9.55581 4.06764 10.2549 3.51763 10.7785C3.24233 11.0405 3.02276 11.2592 2.87146 11.413C2.79579 11.49 2.73715 11.5507 2.6971 11.5926L2.65116 11.6408L2.639 11.6537L2.63569 11.6573L2.63474 11.6583C2.63464 11.6584 2.63425 11.6588 2.99976 12L2.63474 11.6583C2.45541 11.8504 2.45493 12.1491 2.63425 12.3412L2.99976 12C2.63425 12.3412 2.63415 12.3411 2.63425 12.3412L2.63569 12.3427L2.639 12.3463L2.65116 12.3592L2.6971 12.4074C2.73715 12.4493 2.79579 12.51 2.87146 12.587C3.02276 12.7408 3.24233 12.9595 3.51763 13.2215C4.06764 13.7451 4.84297 14.4442 5.74292 15.1446C6.64134 15.8438 7.67379 16.552 8.73784 17.0873C9.79609 17.6197 10.9227 18 11.9998 18C13.0768 18 14.2034 17.6197 15.2617 17.0873C16.3257 16.552 17.3582 15.8438 18.2566 15.1446C19.1565 14.4442 19.9319 13.7451 20.4819 13.2215C20.7572 12.9595 20.9768 12.7408 21.1281 12.587C21.2037 12.51 21.2624 12.4493 21.3024 12.4074L21.3484 12.3592L21.3605 12.3463L21.3638 12.3427L21.3648 12.3417C21.3649 12.3416 21.3653 12.3412 20.9998 12ZM20.9998 12L21.3648 12.3417C21.5441 12.1496 21.5444 11.8507 21.3651 11.6586L20.9998 12Z" fill="black"/>
</svg>
