<svg width="18" height="18" viewBox="0 0 18 18" fill="none" xmlns="http://www.w3.org/2000/svg">
  <path fill-rule="evenodd" clip-rule="evenodd"
    d="M15.0999 3.64164C13.731 2.28612 11.5101 2.28612 10.1413 3.64164L2.52137 11.1873C1.65954 12.0407 1.65954 13.4228 2.52137 14.2762C3.38523 15.1317 4.78733 15.1317 5.6512 14.2762L12.0519 7.93792C12.4087 7.58458 12.4087 7.01323 12.0519 6.65989C11.6931 6.30453 11.1097 6.30453 10.7509 6.65989L4.95974 12.3946L4.43201 11.8616L10.2231 6.12697C10.8743 5.48217 11.9285 5.48217 12.5796 6.12697C13.2328 6.77379 13.2328 7.82402 12.5796 8.47084L6.17892 14.8092C5.02277 15.954 3.14979 15.954 1.99364 14.8092C0.835453 13.6623 0.835453 11.8012 1.99364 10.6543L9.61355 3.10872C11.2747 1.46376 13.9665 1.46376 15.6276 3.10872C17.2908 4.7557 17.2908 7.42751 15.6276 9.07449L8.61729 16.0165L8.08957 15.4835L15.0999 8.54157C16.4667 7.18807 16.4667 4.99514 15.0999 3.64164Z"
    fill="#052A35" />
</svg>
