<svg width="18" height="18" viewBox="0 0 18 18" fill="none" xmlns="http://www.w3.org/2000/svg">
  <path fill-rule="evenodd" clip-rule="evenodd"
    d="M1.125 1.875C1.125 1.66789 1.29289 1.5 1.5 1.5H7.875C8.08211 1.5 8.25 1.66789 8.25 1.875V7.875C8.25 8.08211 8.08211 8.25 7.875 8.25H1.5C1.29289 8.25 1.125 8.08211 1.125 7.875V1.875ZM1.875 2.25V7.5H7.5V2.25H1.875Z"
    fill="#052A35" />
  <path fill-rule="evenodd" clip-rule="evenodd"
    d="M1.125 10.125C1.125 9.91789 1.29289 9.75 1.5 9.75H7.875C8.08211 9.75 8.25 9.91789 8.25 10.125V16.125C8.25 16.3321 8.08211 16.5 7.875 16.5H1.5C1.29289 16.5 1.125 16.3321 1.125 16.125V10.125ZM1.875 10.5V15.75H7.5V10.5H1.875Z"
    fill="#052A35" />
  <path fill-rule="evenodd" clip-rule="evenodd"
    d="M9.75 1.875C9.75 1.66789 9.91789 1.5 10.125 1.5H16.5C16.7071 1.5 16.875 1.66789 16.875 1.875V7.875C16.875 8.08211 16.7071 8.25 16.5 8.25H10.125C9.91789 8.25 9.75 8.08211 9.75 7.875V1.875ZM10.5 2.25V7.5H16.125V2.25H10.5Z"
    fill="#052A35" />
  <path fill-rule="evenodd" clip-rule="evenodd"
    d="M9.75 10.125C9.75 9.91789 9.91789 9.75 10.125 9.75H16.5C16.7071 9.75 16.875 9.91789 16.875 10.125V16.125C16.875 16.3321 16.7071 16.5 16.5 16.5H10.125C9.91789 16.5 9.75 16.3321 9.75 16.125V10.125ZM10.5 10.5V15.75H16.125V10.5H10.5Z"
    fill="#052A35" />
</svg>
