<svg width="38" height="38" viewBox="0 0 38 38" fill="none" xmlns="http://www.w3.org/2000/svg">
<path d="M28.4997 6.33334H9.49967C7.75077 6.33334 6.33301 7.75111 6.33301 9.50001V28.5C6.33301 30.2489 7.75077 31.6667 9.49967 31.6667H28.4997C30.2486 31.6667 31.6663 30.2489 31.6663 28.5V9.50001C31.6663 7.75111 30.2486 6.33334 28.4997 6.33334Z" stroke="#FF790B" stroke-width="3" stroke-linecap="round" stroke-linejoin="round"/>
<path d="M12.6672 17.4167V25.3333" stroke="#FF790B" stroke-width="3" stroke-linecap="round" stroke-linejoin="round"/>
<path d="M12.6672 12.6667V12.6825" stroke="#FF790B" stroke-width="3" stroke-linecap="round" stroke-linejoin="round"/>
<path d="M19.0002 25.3333V17.4167" stroke="#FF790B" stroke-width="3" stroke-linecap="round" stroke-linejoin="round"/>
<path d="M25.3336 25.3333V20.5833C25.3336 19.7435 24.9999 18.938 24.4061 18.3442C23.8122 17.7503 23.0068 17.4167 22.1669 17.4167C21.3271 17.4167 20.5216 17.7503 19.9277 18.3442C19.3339 18.938 19.0002 19.7435 19.0002 20.5833" stroke="#FF790B" stroke-width="3" stroke-linecap="round" stroke-linejoin="round"/>
</svg>
