<svg width="24" height="24" viewBox="0 0 24 24" fill="none" xmlns="http://www.w3.org/2000/svg">
<path fill-rule="evenodd" clip-rule="evenodd" d="M1.5 7C1.5 5.61929 2.61929 4.5 4 4.5H20C21.3807 4.5 22.5 5.61929 22.5 7V17C22.5 18.3807 21.3807 19.5 20 19.5H4C2.61929 19.5 1.5 18.3807 1.5 17V7ZM4 5.5C3.17157 5.5 2.5 6.17157 2.5 7V17C2.5 17.8284 3.17157 18.5 4 18.5H20C20.8284 18.5 21.5 17.8284 21.5 17V7C21.5 6.17157 20.8284 5.5 20 5.5H4Z" fill="black"/>
<path fill-rule="evenodd" clip-rule="evenodd" d="M21.6555 6.06554L21.345 6.36167C21.3285 6.37732 21.3111 6.39185 21.2927 6.40513L12.2927 12.9051C12.1179 13.0313 11.8819 13.0313 11.7072 12.9051L2.70718 6.40513C2.67938 6.38506 2.65372 6.36217 2.63061 6.33685L2.36035 6.04072L3.09898 5.36661L3.33448 5.62465L11.9999 11.883L20.6796 5.61441L20.9655 5.3418L21.6555 6.06554Z" fill="black"/>
</svg>
