<svg width="719" height="395" viewBox="0 0 719 395" fill="none" xmlns="http://www.w3.org/2000/svg">
<path d="M656.246 5.7553C676.687 2.96602 697.311 -2.31897 718.009 1.13093C716.284 6.70949 715.367 12.9487 711.403 17.6464C695.88 37.4283 677.494 54.7146 661.2 73.9459C631.842 107.711 606.96 144.999 580.097 180.746C531.986 243.872 490.48 311.916 438.516 372.105C425.341 363.591 409.781 359.847 397.047 350.672C382.544 340.999 367.347 332.412 351.578 324.981C331.908 349.938 304.751 366.93 282.328 389.061C265.3 406.127 244.346 419.633 232.125 441.03C225.707 436.329 221.054 429.608 218.914 421.945C196.895 358.636 184.931 292.06 178.913 225.375C151.976 213.777 126.288 199.464 98.7639 189.261C68.8915 177.736 41.1111 161.551 11.459 149.44C1.66056 146.467 -1.64244 134.98 0.742942 125.915C6.95887 122.819 13.5626 120.572 20.3766 119.235C89.3325 104.114 156.894 83.4147 226.253 70.4226C292.053 57.5405 358.147 45.2457 424.937 38.823C452.131 36.4374 479.141 32.4737 506.297 29.611C556.61 23.8856 606.153 13.0955 656.246 5.7553ZM522.298 40.3644C424.644 46.3466 328.568 66.4957 233.043 86.828C165.041 101.031 98.6906 121.951 31.2026 138.21C57.7721 150.908 83.4973 165.625 111.498 174.911C139.499 184.196 166.068 200.308 194.84 209.263L204.565 206.767C281.998 176.709 363.027 158.102 441.892 132.484C461.562 127.052 481.049 119.051 501.637 118.281L505.306 125.254C491.068 142.687 471.104 154.174 453.158 167.313C397.854 203.941 343.577 242.147 287.76 278.187C306.719 286.044 325.22 294.964 343.174 304.906C372.826 319.586 404.056 332.725 429.084 355.039C455.14 323.733 480.792 292.06 503.948 258.479C538.775 207.905 577.345 160.047 613.786 110.647C637.42 78.7171 664.613 49.7965 690.852 20.1053C634.484 24.8398 578.629 34.8593 522.298 40.4746V40.3644ZM194.766 230.843C200.858 288.39 214.987 344.616 233.043 399.668C239.428 374.821 242.584 349.314 248.786 324.394C252.196 309.009 254.04 293.319 254.291 277.563L263.025 275.471C276.273 262.516 292.861 254.111 308.164 243.982C359.725 209.776 411.946 176.489 463.287 141.843C373.964 172.121 281.814 194.179 194.766 230.953V230.843ZM268.163 289.565C265.117 327.881 255.135 365.206 249.226 403.155C269.667 381.317 289.594 359.113 312.934 340.065C321.369 332.952 329.394 325.367 336.972 317.347C315.32 305.089 292.86 293.749 268.163 289.528V289.565Z" fill="url(#paint0_linear_253_745)"/>
<defs>
<linearGradient id="paint0_linear_253_745" x1="0.00899621" y1="220.603" x2="718.009" y2="220.603" gradientUnits="userSpaceOnUse">
<stop stop-color="#F15A24"/>
<stop offset="1" stop-color="#F24C7A"/>
</linearGradient>
</defs>
</svg>
