<svg width="37" height="37" viewBox="0 0 37 37" fill="none" xmlns="http://www.w3.org/2000/svg">
  <path fill-rule="evenodd" clip-rule="evenodd"
    d="M18.5 3.85417C14.2428 3.85417 10.7917 7.30531 10.7917 11.5625C10.7917 15.8197 14.2428 19.2708 18.5 19.2708C22.7572 19.2708 26.2083 15.8197 26.2083 11.5625C26.2083 7.30531 22.7572 3.85417 18.5 3.85417ZM9.25 11.5625C9.25 6.45387 13.3914 2.3125 18.5 2.3125C23.6086 2.3125 27.75 6.45387 27.75 11.5625C27.75 16.6711 23.6086 20.8125 18.5 20.8125C13.3914 20.8125 9.25 16.6711 9.25 11.5625Z"
    fill="#F2F2F2" />
  <path fill-rule="evenodd" clip-rule="evenodd"
    d="M18.5002 20.8122C11.4612 20.8122 5.65567 25.2399 4.20598 31.0495C3.94791 32.0837 4.8205 33.1455 6.16687 33.1455H30.8335C32.1799 33.1455 33.0525 32.0837 32.7944 31.0495C31.3447 25.2399 25.5392 20.8122 18.5002 20.8122ZM2.71018 30.6762C4.3517 24.0979 10.8418 19.2705 18.5002 19.2705C26.1586 19.2705 32.6487 24.0979 34.2902 30.6762C34.8567 32.9464 32.8929 34.6872 30.8335 34.6872H6.16687C4.10749 34.6872 2.14368 32.9464 2.71018 30.6762Z"
    fill="#F2F2F2" />
</svg>
