<svg width="34" height="33" viewBox="0 0 34 33" fill="none" xmlns="http://www.w3.org/2000/svg">
<path d="M4.2019 28.1346L6.51296 23.0436C4.74488 20.6429 3.95352 17.7074 4.28741 14.7882C4.62129 11.869 6.05745 9.16671 8.32638 7.18842C10.5953 5.21013 13.541 4.09186 16.6107 4.04348C19.6804 3.99509 22.663 5.01992 24.9989 6.92563C27.3347 8.83134 28.8632 11.4869 29.2974 14.394C29.7317 17.3011 29.0419 20.2599 27.3575 22.715C25.673 25.1702 23.1098 26.953 20.1488 27.7288C17.1877 28.5047 14.0325 28.2202 11.2751 26.9289L4.2019 28.1346" stroke="#FF790B" stroke-width="3" stroke-linecap="round" stroke-linejoin="round"/>
<path d="M12.6057 13.3975C12.6057 13.5751 12.6795 13.7455 12.8108 13.8711C12.9422 13.9968 13.1203 14.0673 13.306 14.0673C13.4918 14.0673 13.6699 13.9968 13.8012 13.8711C13.9326 13.7455 14.0064 13.5751 14.0064 13.3975V12.0577C14.0064 11.8801 13.9326 11.7097 13.8012 11.584C13.6699 11.4584 13.4918 11.3878 13.306 11.3878C13.1203 11.3878 12.9422 11.4584 12.8108 11.584C12.6795 11.7097 12.6057 11.8801 12.6057 12.0577V13.3975ZM12.6057 13.3975C12.6057 15.1741 13.3435 16.8779 14.6569 18.1342C15.9703 19.3904 17.7516 20.0962 19.6089 20.0962H21.0096C21.1953 20.0962 21.3734 20.0256 21.5048 19.9C21.6361 19.7744 21.7099 19.604 21.7099 19.4263C21.7099 19.2486 21.6361 19.0783 21.5048 18.9526C21.3734 18.827 21.1953 18.7564 21.0096 18.7564H19.6089C19.4232 18.7564 19.2451 18.827 19.1137 18.9526C18.9824 19.0783 18.9086 19.2486 18.9086 19.4263C18.9086 19.604 18.9824 19.7744 19.1137 19.9C19.2451 20.0256 19.4232 20.0962 19.6089 20.0962" stroke="#FF790B" stroke-width="3" stroke-linecap="round" stroke-linejoin="round"/>
</svg>
