<svg width="23" height="22" viewBox="0 0 23 22" fill="none" xmlns="http://www.w3.org/2000/svg">
  <path
    d="M2.875 19.25L4.45625 15.7667C3.24651 14.1241 2.70506 12.1156 2.9335 10.1183C3.16195 8.12095 4.14459 6.27199 5.69701 4.91843C7.24944 3.56486 9.26493 2.79973 11.3652 2.76662C13.4656 2.73352 15.5063 3.43472 17.1045 4.73862C18.7027 6.04253 19.7485 7.85951 20.0456 9.84858C20.3428 11.8376 19.8708 13.8621 18.7183 15.5419C17.5658 17.2218 15.812 18.4416 13.786 18.9724C11.76 19.5032 9.60118 19.3086 7.71458 18.425L2.875 19.25"
    stroke="#F24C7A" stroke-width="2" stroke-linecap="round" stroke-linejoin="round" />
  <path
    d="M8.625 9.16663C8.625 9.28818 8.67548 9.40476 8.76534 9.49072C8.85521 9.57667 8.97708 9.62496 9.10417 9.62496C9.23125 9.62496 9.35313 9.57667 9.44299 9.49072C9.53285 9.40476 9.58333 9.28818 9.58333 9.16663V8.24996C9.58333 8.1284 9.53285 8.01182 9.44299 7.92587C9.35313 7.83991 9.23125 7.79163 9.10417 7.79163C8.97708 7.79163 8.85521 7.83991 8.76534 7.92587C8.67548 8.01182 8.625 8.1284 8.625 8.24996V9.16663ZM8.625 9.16663C8.625 10.3822 9.12983 11.548 10.0284 12.4075C10.9271 13.2671 12.1458 13.75 13.4167 13.75H14.375C14.5021 13.75 14.624 13.7017 14.7138 13.6157C14.8037 13.5298 14.8542 13.4132 14.8542 13.2916C14.8542 13.1701 14.8037 13.0535 14.7138 12.9675C14.624 12.8816 14.5021 12.8333 14.375 12.8333H13.4167C13.2896 12.8333 13.1677 12.8816 13.0778 12.9675C12.988 13.0535 12.9375 13.1701 12.9375 13.2916C12.9375 13.4132 12.988 13.5298 13.0778 13.6157C13.1677 13.7017 13.2896 13.75 13.4167 13.75"
    stroke="#F24C7A" stroke-width="2" stroke-linecap="round" stroke-linejoin="round" />
</svg>
